<?xml version="1.0" encoding="utf-8"?>
<!-- Generator: Adobe Illustrator 24.1.3, SVG Export Plug-In . SVG Version: 6.00 Build 0)  -->
<svg version="1.1" id="Calque_1" xmlns="http://www.w3.org/2000/svg" xmlns:xlink="http://www.w3.org/1999/xlink" x="0px" y="0px"
	 viewBox="0 0 1024 512" style="enable-background:new 0 0 1024 512;" xml:space="preserve">
<g>
	<path d="M175.03,259.2c0-12.38,0.86-25.06,1.87-38.02c-11.09,1.01-21.53,7.42-26.21,15.63c-1.44,2.59-2.16,5.54-2.16,8.42
		c0,7.63,4.97,15.05,14.69,14.91c1.08,0,2.3-0.14,3.31-0.43c0.58-0.22,1.3,0.22,0.58,0.72c-0.36,0.22-2.52,0.86-5.33,0.86
		c-4.25,0-10.08-1.44-13.75-7.63c-1.3-2.16-2.02-5.18-2.02-8.42c0-3.31,0.72-6.91,2.52-10.08c4.68-8.28,15.48-14.91,27-16.13
		l1.58-0.14c0.36-3.74,0.72-6.91,1.15-8.86c0.07-0.29-0.07-0.5,1.08-0.29c0.72,0.07,1.44,0.65,1.44,1.01
		c-0.36,2.02-0.72,4.75-1.01,7.99c3.67-0.14,7.56,0.14,11.23,0.94c10.8,2.16,15.7,8.42,15.84,14.33
		c0.14,5.62-4.25,11.38-11.16,13.75c4.54,1.94,8.64,5.26,10.8,10.44c2.81-0.36,6.26-0.58,8.93-0.58c2.38,0,4.18,0.14,4.61,0.65
		c0.5,0.5,0,0.79-0.43,0.86c-4.46,0.36-8.57,0.72-12.24,1.3l-0.14,0.07c0.14,0.86,0.22,1.73,0.22,2.59
		c0,9.22-7.56,16.42-16.56,19.51c-3.6,1.3-7.85,1.94-11.88,1.87c-3.74-0.14-14.26-1.87-14.26-7.42c0-0.65,0.14-1.3,0.43-2.09
		c1.66-3.67,5.62-6.55,9.94-8.64C175.03,263.95,175.03,261.57,175.03,259.2z M177.47,268.05c0.14,2.88,0.43,5.33,1.08,6.91
		c0.07,0.36-0.07,0.58-0.5,0.58c-0.79-0.07-1.44-1.01-1.66-1.58c-0.5-1.08-0.86-2.81-1.08-4.83c-3.46,1.8-6.7,4.25-8.42,7.42
		c-1.73,4.97,7.34,5.62,10.87,5.69c3.67,0.14,7.85-0.43,11.67-1.66c7.63-2.59,16.49-8.71,15.55-19.8
		c-8.21,1.3-14.55,2.38-20.31,4.46C182.51,266.04,179.92,266.9,177.47,268.05z M192.96,248.68c-1.58,0.36-3.17,0.43-5.04,0.5
		c-2.81,0.14-6.19-0.14-6.7-1.22c-0.22-1.15,0.22-1.22,0.72-1.44c1.15-0.65,2.95-1.08,5.11-1.08c1.66,0,3.6,0.29,5.69,0.94
		c4.97-0.79,11.45-6.34,11.52-12.02c0.07-5.04-4.46-11.16-14.4-12.96c-2.45-0.36-4.97-0.58-7.56-0.58c-0.94,0-1.8,0-2.74,0.07
		c-0.86,13.18-1.94,30.1-2.16,44.36c1.94-0.86,3.89-1.51,5.69-2.16c7.13-2.52,15.41-3.74,21.24-4.61
		C202.46,253.58,197.71,250.12,192.96,248.68z"/>
	<path d="M217.72,260.78c-0.22-0.65-0.36-1.37-0.36-2.09c0-3.17,2.16-6.41,5.69-6.55c2.23,0,4.32,2.16,3.53,4.25
		c-0.94,2.3-4.03,4.03-6.55,4.03c0.22,1.37,2.74,3.67,5.26,3.67c6.77,0,11.81-5.04,14.83-8.21c1.66-1.73,1.37-0.07,0.36,1.94
		c-2.02,4.18-6.63,7.7-11.59,7.99C224.63,266.04,219.16,265.24,217.72,260.78z M219.95,258.69c3.02-1.37,5.04-3.31,4.25-4.1
		C222.69,253.08,219.88,256.89,219.95,258.69z"/>
	<path d="M240.4,252.71c0-0.5,0.72-0.5,1.44-0.14c0.65,0.36,1.08,1.08,1.08,1.51l-0.07,2.81c1.8-2.3,7.13-6.48,11.09-5.83
		c1.66,0.29,2.66,1.8,2.16,2.38c-1.01,1.15-2.02,0.72-1.94,0.14l0.07-0.58c-3.6-0.07-9.58,4.32-11.31,9.29
		c-0.22,0.58-0.22,1.01-0.5,3.1c0.07,0.94-2.3,0-2.59-1.08C239.54,263.66,239.39,261.79,240.4,252.71z"/>
	<path d="M261.1,263.59c5.98-0.43,11.16-4.25,15.48-8.06c0.43-0.29,0.94,0.94,0.43,1.87c-1.15,2.16-5.9,7.85-14.69,8.35
		c-4.18,0-8.28-2.81-8.06-7.49c0.07-2.02,0.94-3.96,2.59-5.33c1.01-0.79,2.3-1.44,3.89-1.44c0.79,0,1.73,0.14,2.66,0.65
		c0.94,0.5,1.58,1.37,1.66,2.09c0,1.22-1.51,1.73-2.16,1.94c-0.72,0.29-1.37,0-0.86-0.94c0.14-0.29,0.43-0.86,0.5-1.66
		c-2.66-0.58-5.33,2.09-5.9,4.82C255.99,261.5,257.86,263.59,261.1,263.59z"/>
	<path d="M293.63,264.88c-3.6,0-7.99-1.37-10.73-4.68c-1.58,2.02-2.45,5.62-2.52,8.93c0,1.08-1.94,0.14-2.38-1.08
		c-0.14-2.52-0.22-5.18-0.22-7.85c0-12.82,0.65-26.5,0.79-35.43c0-0.43,0.65-0.72,1.3-0.43c0.79,0.22,1.44,0.79,1.51,1.22
		c-0.29,9.29-0.43,19.66-1.08,33.19c2.3-3.89,5.47-8.57,9.65-8.93c1.58-0.14,2.59,1.01,2.95,1.87c1.08,2.66-4.03,6.77-7.49,7.78
		c1.22,1.51,4.9,3.02,7.92,2.81c5.18-0.36,11.38-4.54,14.26-6.98c0.94-0.79,0.07,2.3-1.15,3.46
		C305.08,260.06,300.47,264.88,293.63,264.88z M284.13,257.97c1.73-0.14,6.62-4.25,6.12-6.12
		C289.31,251.49,286.94,253.51,284.13,257.97z"/>
	<path d="M309.66,263.23c0.65,0.14,1.44,0.22,2.38,0.22c2.3,0,5.18-0.36,7.06-0.79c-1.8-0.94-4.54-2.3-5.98-3.1
		c-1.87-1.08-3.89-1.8-4.18-3.96c-0.58-3.82,7.27-6.12,10.94-6.62c1.15-0.14,2.59,1.22,2.02,1.94c-2.66,0.94-9.22,2.16-10.01,4.03
		c-0.43,1.01,1.22,1.73,2.66,2.59c2.74,1.51,4.9,2.59,6.34,3.74c1.58,1.37,0.22,3.38-1.66,3.89c-1.3,0.36-3.17,0.58-5.04,0.58
		c-1.8,0-3.53-0.22-4.61-0.65C308.73,264.67,308.08,262.87,309.66,263.23z"/>
	<path d="M333.9,257.25c0.29,0.94,0.36,2.02,0.14,3.1c-0.65,3.6-3.6,5.4-6.91,5.18c-2.66-0.14-4.46-2.38-4.82-4.39
		c-0.5-3.02,1.37-6.48,3.02-7.06c0.14,0,0.22-0.07,0.36-0.07c0.29-1.01,0.79-1.8,2.23-1.73c1.94,0.29,3.53,1.22,4.61,2.52
		c1.8,0.22,3.67,0.29,5.33,0.29c3.38,0,6.19-0.29,6.84-0.29c2.09-0.07,1.58,0.86-0.14,1.44
		C342.97,256.82,338.29,257.47,333.9,257.25z M324.82,260.92c0.36,2.09,1.15,2.88,2.52,2.81c3.17-0.14,4.75-4.25,3.6-6.84
		c-1.66-0.29-3.02-0.72-4.03-1.37l-0.14,0.14C325.83,256.39,324.46,258.91,324.82,260.92z"/>
	<path d="M347.13,262.22l-0.07,1.66c0.07,0.94-2.45,0.29-2.52-0.86c-0.07-0.58-0.14-1.3,0-2.16l0.72-7.2c0-0.5,0.72-0.58,1.44-0.29
		c0.58,0.36,1.22,1.01,1.15,1.44l-0.14,2.45c2.45-1.8,7.63-4.39,11.67-3.96c1.37,0.14,2.66,1.44,2.66,2.52
		c0,0.72-0.22,1.8-0.29,2.95c0,0.86,0.65,1.51,1.66,1.8c1.51,0.43,3.89,0.58,6.84,0.58c8.5,0,20.88-1.44,24.12-2.38
		c0.5-0.14,3.17-0.79,3.53-0.22c0.58,0.58-2.45,1.73-2.95,1.87c-5.11,1.66-15.63,3.38-23.62,3.38c-2.52,0-4.75-0.22-6.55-0.58
		c-1.22-0.36-6.34-1.44-5.76-8.06C353.69,255.74,348.5,259.2,347.13,262.22z"/>
	<path d="M441.61,223.91l0.14,1.3c0.36,5.9,0.65,11.45,0.65,17.35c0,4.32-0.22,8.86-0.58,13.97c3.53-0.58,6.91-1.08,9.94-1.08
		c2.23,0,4.32,0.29,6.19,1.01c0.36,0.58-0.14,0.65-0.72,0.65c-4.54,0.36-8.21,0.86-15.84,2.16c-2.09,13.46-8.35,33.92-24.48,32.83
		c-5.33-0.36-10.3-2.23-13.68-6.34c-1.15-1.66-1.73-3.53-1.73-5.47c0-2.45,0.86-4.97,2.66-6.98c6.19-7.27,23.98-14.54,34.63-16.27
		c0.72-6.34,0.94-14.4,0.94-21.46c0-4.46-0.07-8.57-0.14-11.52c-11.16,1.08-22.03,2.52-33.99,4.68c-0.58,0.14-1.44-0.29-2.02-0.86
		c-0.29-0.58-0.43-1.15,0.14-1.22c13.75-2.45,24.84-3.82,35.72-4.68v-1.3c0.36-0.5,0.86-0.43,1.51,0.36l0.22,0.79
		c5.47-0.43,10.87-0.79,16.63-1.15c0.65,0,1.37,0.07,1.87,0.65c0.29,0.65,0.29,1.15-0.29,1.15
		C453.27,222.9,447.44,223.34,441.61,223.91z M438.37,259.92l-1.94,0.43c-8.5,2.02-33.48,10.73-33.48,20.38
		c0,1.44,0.58,2.88,1.8,4.32c2.23,2.66,7.06,4.61,11.02,4.97C430.16,291.09,435.99,273.09,438.37,259.92z"/>
	<path d="M466.37,257.25c0.29,0.94,0.36,2.02,0.14,3.1c-0.65,3.6-3.6,5.4-6.91,5.18c-2.66-0.14-4.46-2.38-4.82-4.39
		c-0.5-3.02,1.37-6.48,3.02-7.06c0.14,0,0.22-0.07,0.36-0.07c0.29-1.01,0.79-1.8,2.23-1.73c1.94,0.29,3.53,1.22,4.61,2.52
		c1.8,0.22,3.67,0.29,5.33,0.29c3.38,0,6.19-0.29,6.84-0.29c2.09-0.07,1.58,0.86-0.14,1.44
		C475.45,256.82,470.77,257.47,466.37,257.25z M457.3,260.92c0.36,2.09,1.15,2.88,2.52,2.81c3.17-0.14,4.75-4.25,3.6-6.84
		c-1.66-0.29-3.02-0.72-4.03-1.37l-0.14,0.14C458.31,256.39,456.94,258.91,457.3,260.92z"/>
	<path d="M477.45,262.72V252.5c-0.21-9.94,0.15-18.79,0.66-28.01c0-1.01,2.81-0.14,2.81,0.94c-0.94,9.22-1.08,18.58-1.47,28.44v6.41
		c2.47-2.52,8.59-8.28,12.7-6.98c1.01,0.29,2.09,1.15,2.38,2.09c0.22,1.73-0.36,3.74,0.14,5.83c0.72,0.36,1.51,0.5,2.3,0.5
		c3.74,0,11.52-3.02,13.83-6.12c0.65-0.79,0.29,1.51-0.79,3.1c-1.58,2.38-6.98,5.11-11.59,5.11c-1.58,0-3.17-0.36-4.82-1.44
		c-1.66-1.22-2.02-3.1-2.02-4.61c0-1.01,0.14-1.87,0.14-2.38c-4.1-0.22-11.67,7.42-11.95,10.73c0.07,1.08-2.16,0.14-2.45-1.01
		C477.24,264.96,477.24,264.09,477.45,262.72z"/>
	<path d="M509.84,260.85l0.72-7.2c0-0.5,0.72-0.58,1.44-0.29c0.58,0.36,1.22,1.01,1.15,1.44l-0.14,2.45
		c2.45-1.8,7.63-4.39,11.67-3.96c1.37,0.14,2.66,1.44,2.66,2.52c0,1.22-0.79,3.96,0.14,5.33c0.72,0.58,1.51,0.79,2.45,0.79
		c4.46,0,10.73-5.69,13.03-6.84c0.29-0.14,0.58,1.44-0.5,2.81c-1.73,2.23-6.41,6.05-11.45,6.05c-2.09,0-4.39-0.86-5.69-2.74
		c-0.72-1.08-0.94-2.3-0.94-3.6c0-0.79,0.07-1.58,0.22-2.45c-5.33,0.58-10.8,4.03-12.17,7.06l-0.07,1.66
		c0.07,0.94-2.45,0.29-2.52-0.86C509.77,262.44,509.7,261.72,509.84,260.85z"/>
	<path d="M542.74,263.23c0.65,0.14,1.44,0.22,2.38,0.22c2.3,0,5.18-0.36,7.06-0.79c-1.8-0.94-4.54-2.3-5.98-3.1
		c-1.87-1.08-3.89-1.8-4.18-3.96c-0.58-3.82,7.27-6.12,10.94-6.62c1.15-0.14,2.59,1.22,2.02,1.94c-2.66,0.94-9.22,2.16-10.01,4.03
		c-0.43,1.01,1.22,1.73,2.66,2.59c2.74,1.51,4.9,2.59,6.34,3.74c1.58,1.37,0.22,3.38-1.66,3.89c-1.3,0.36-3.17,0.58-5.04,0.58
		c-1.8,0-3.53-0.22-4.61-0.65C541.8,264.67,541.15,262.87,542.74,263.23z"/>
	<path d="M560.83,266.11c-1.37-2.16-1.87-7.27-1.87-13.25c0-11.95,2.02-27.43,2.95-30.46c0.07-0.43,0.5-0.5,1.22-0.22
		c0.72,0.36,1.3,0.94,1.3,1.3c-0.43,1.37-2.52,18.65-2.52,31.11c0,6.41,0.58,11.52,2.16,12.6c3.74,2.3,12.46-9.43,13.54-10.8
		c0.72-1.01,0.86,0.79,0.58,1.66c-1.3,3.6-7.06,11.38-11.59,11.38C564.28,269.42,562.26,268.12,560.83,266.11z"/>
	<path d="M585.46,289.65c0-0.79-0.07-1.66-0.07-2.66c0-6.48,0.58-16.78,1.22-25.49c-1.3,1.3-2.74,2.23-4.39,2.23
		c-3.46,0-5.83-3.74-6.12-7.49c0.07-2.09,0.72-4.32,1.94-4.75c0.43-0.14,1.22,0.14,1.66,0.72c0.65,0.58,0.79,1.22,0.29,1.37
		c-0.14,0.07-0.58,0.5-0.86,1.22c-0.29,0.79-0.43,1.66-0.43,2.52c0,1.01,0.14,1.94,0.5,2.88c0.58,1.08,1.22,1.73,2.59,1.15
		c3.31-1.3,5.11-5.62,5.54-8.93c0.07-1.01,2.3-0.07,2.59,1.08c0.29,1.08,0.29,2.81-0.22,4.82c-1.08,10.94-1.73,21.39-2.16,33.34
		c0.14,0.5-0.5,0.58-1.08,0.22C585.82,291.45,585.46,290.16,585.46,289.65z"/>
	<path d="M649.61,223.91l0.14,1.3c0.36,5.9,0.65,11.45,0.65,17.35c0,4.32-0.22,8.86-0.58,13.97c3.53-0.58,6.91-1.08,9.94-1.08
		c2.23,0,4.32,0.29,6.19,1.01c0.36,0.58-0.14,0.65-0.72,0.65c-4.54,0.36-8.21,0.86-15.84,2.16c-2.09,13.46-8.35,33.92-24.48,32.83
		c-5.33-0.36-10.3-2.23-13.68-6.34c-1.15-1.66-1.73-3.53-1.73-5.47c0-2.45,0.86-4.97,2.67-6.98c6.19-7.27,23.98-14.54,34.63-16.27
		c0.72-6.34,0.94-14.4,0.94-21.46c0-4.46-0.07-8.57-0.14-11.52c-11.16,1.08-22.03,2.52-33.99,4.68c-0.58,0.14-1.44-0.29-2.02-0.86
		c-0.29-0.58-0.43-1.15,0.14-1.22c13.75-2.45,24.84-3.82,35.71-4.68v-1.3c0.36-0.5,0.86-0.43,1.51,0.36l0.22,0.79
		c5.47-0.43,10.87-0.79,16.63-1.15c0.65,0,1.37,0.07,1.87,0.65c0.29,0.65,0.29,1.15-0.29,1.15
		C661.27,222.9,655.44,223.34,649.61,223.91z M646.87,259.92l-1.94,0.43c-8.5,2.02-33.48,10.73-33.48,20.38
		c0,1.44,0.58,2.88,1.8,4.32c2.23,2.66,7.06,4.61,11.02,4.97C638.67,291.09,644.5,273.09,646.87,259.92z"/>
	<path d="M663.07,260.78c-0.22-0.65-0.36-1.37-0.36-2.09c0-3.17,2.16-6.41,5.69-6.55c2.23,0,4.32,2.16,3.53,4.25
		c-0.94,2.3-4.03,4.03-6.55,4.03c0.22,1.37,2.74,3.67,5.26,3.67c6.77,0,11.81-5.04,14.83-8.21c1.66-1.73,1.37-0.07,0.36,1.94
		c-2.02,4.18-6.62,7.7-11.59,7.99C669.99,266.04,664.51,265.24,663.07,260.78z M665.3,258.69c3.02-1.37,5.04-3.31,4.25-4.1
		C668.04,253.08,665.23,256.89,665.3,258.69z"/>
	<path d="M683.02,259.22c0-1.58,0.79-3.17,2.59-4.39c1.94-1.3,4.39-1.94,6.91-1.94c2.02,0,4.03,0.43,5.83,1.22h0.07l1.22-1.66
		c0.43-0.79,2.88,0.79,2.38,1.66c-0.36,1.08-1.01,2.38-1.15,3.74c-0.07,1.22,0.29,2.66,1.58,3.02c3.67,0.72,9.86-2.95,12.46-5.83
		c1.22-1.22,2.3,0.58-1.66,4.54c-1.8,1.8-6.77,4.1-9.79,3.38c-2.38-0.58-4.18-1.94-5.11-4.54c-2.02,1.8-6.77,5.47-10.58,5.47
		c-0.94,0-1.8-0.22-2.59-0.72C683.74,262.1,683.02,260.73,683.02,259.22z M697.13,256.03c-0.72-0.22-1.73-0.36-2.81-0.36
		c-3.6,0-8.35,1.37-9.14,4.68c-0.22,0.86,0.22,1.66,1.3,1.73C689.93,261.64,694.61,258.69,697.13,256.03z"/>
	<path d="M713.69,260.85l0.72-7.2c0-0.5,0.72-0.58,1.44-0.29c0.58,0.36,1.22,1.01,1.15,1.44l-0.14,2.45
		c2.45-1.8,7.63-4.39,11.67-3.96c1.37,0.14,2.66,1.44,2.66,2.52c0,1.22-0.79,3.96,0.14,5.33c0.72,0.58,1.51,0.79,2.45,0.79
		c4.46,0,10.73-5.69,13.03-6.84c0.29-0.14,0.58,1.44-0.5,2.81c-1.73,2.23-6.41,6.05-11.45,6.05c-2.09,0-4.39-0.86-5.69-2.74
		c-0.72-1.08-0.94-2.3-0.94-3.6c0-0.79,0.07-1.58,0.22-2.45c-5.33,0.58-10.8,4.03-12.17,7.06l-0.07,1.66
		c0.07,0.94-2.45,0.29-2.52-0.86C713.62,262.44,713.54,261.72,713.69,260.85z"/>
	<path d="M752.51,255.13c0.5,0,1.22-0.07,2.02-0.07c2.95,0,7.85,0.14,11.02,0.29c0.65,0,1.51,0.58,1.8,1.15
		c0.43,0.65,0.07,1.01-0.5,1.01l-12.67-0.29c-0.58,0-1.22-0.29-1.73-0.94C752.01,255.78,751.93,255.13,752.51,255.13z"/>
	<path d="M775.49,275.11c-1.37-2.16-1.87-7.27-1.87-13.25c0-11.95,2.02-27.43,2.95-30.46c0.07-0.43,0.5-0.5,1.22-0.22
		c0.72,0.36,1.3,0.94,1.3,1.3c-0.43,1.37-2.52,18.65-2.52,31.11c0,6.41,0.58,11.52,2.16,12.6c3.75,2.3,12.46-9.43,13.54-10.8
		c0.72-1.01,0.86,0.79,0.58,1.66c-1.3,3.6-7.06,11.38-11.59,11.38C778.95,278.42,776.93,277.12,775.49,275.11z"/>
	<path d="M802.21,257.25c0.29,0.94,0.36,2.02,0.14,3.1c-0.65,3.6-3.6,5.4-6.91,5.18c-2.67-0.14-4.46-2.38-4.83-4.39
		c-0.5-3.02,1.37-6.48,3.02-7.06c0.14,0,0.22-0.07,0.36-0.07c0.29-1.01,0.79-1.8,2.23-1.73c1.94,0.29,3.53,1.22,4.61,2.52
		c1.8,0.22,3.67,0.29,5.33,0.29c3.38,0,6.19-0.29,6.84-0.29c2.09-0.07,1.58,0.86-0.14,1.44
		C811.28,256.82,806.6,257.47,802.21,257.25z M793.13,260.92c0.36,2.09,1.15,2.88,2.52,2.81c3.17-0.14,4.75-4.25,3.6-6.84
		c-1.66-0.29-3.02-0.72-4.03-1.37l-0.14,0.14C794.14,256.39,792.77,258.91,793.13,260.92z"/>
	<path d="M813.73,260.49c-0.29-0.86-0.43-1.8-0.43-2.74c0-1.15,0.22-2.38,0.79-3.38c0.36-0.72,0.79-1.37,1.44-1.58
		c0.58-0.14,1.37,0.22,1.94,0.86c0.58,0.58,0.43,1.01,0.07,1.22c-1.01,0.65-1.66,2.74-1.66,4.61c0,1.3,0.29,2.45,1.08,2.95
		c2.95,2.02,7.78-5.62,8.35-8.21c0.22-1.01,2.74,0.29,2.59,1.37c-0.07,0.5-0.14,1.66-0.14,2.95c0.29,1.73,0.79,3.46,2.81,3.67
		c4.97-0.22,9.29-4.03,11.67-6.41c0.65-0.86,0.58,1.3-0.29,2.66c-1.44,2.23-5.11,6.12-10.08,5.83c-2.81,0-5.04-1.73-6.05-4.1
		c-1.44,2.09-3.53,4.61-6.48,4.61C816.97,264.81,814.52,262.94,813.73,260.49z"/>
	<path d="M840.36,257.32c0-2.23,0.43-4.46,1.22-5.69c0.07-0.36,0.79-0.43,1.66-0.22c0.79,0.29,1.22,0.86,1.15,1.22
		c-0.58,0.58-2.02,8.71-0.94,9.65c0.58,0.43,1.3,0.65,2.09,0.65c4.46,0,12.1-5.76,14.26-7.92c0.29-0.29,1.01,0.14,0.14,1.73
		c-1.37,2.52-7.92,8.21-12.89,8.42c-1.8,0.07-3.74-0.36-5.11-1.87C840.87,262.15,840.36,259.7,840.36,257.32z M842.52,245.37
		c0.14-0.22,0.65-1.66,0.79-2.02l0.14-1.08c0-0.43,0.79-0.58,1.51-0.29c0.94,0.22,1.51,0.79,1.37,1.15c0,0.29,0,0.79-0.22,1.22
		c-0.14,0.36-0.72,1.94-0.94,2.3c-0.22,0.29-1.08,0.29-1.73-0.07C842.6,246.31,842.16,245.66,842.52,245.37z"/>
	<path d="M858.72,263.23c0.65,0.14,1.44,0.22,2.38,0.22c2.3,0,5.18-0.36,7.06-0.79c-1.8-0.94-4.54-2.3-5.98-3.1
		c-1.87-1.08-3.89-1.8-4.18-3.96c-0.58-3.82,7.27-6.12,10.95-6.62c1.15-0.14,2.59,1.22,2.02,1.94c-2.66,0.94-9.22,2.16-10.01,4.03
		c-0.43,1.01,1.22,1.73,2.66,2.59c2.74,1.51,4.9,2.59,6.34,3.74c1.58,1.37,0.22,3.38-1.66,3.89c-1.3,0.36-3.17,0.58-5.04,0.58
		c-1.8,0-3.53-0.22-4.61-0.65C857.79,264.67,857.14,262.87,858.72,263.23z"/>
</g>
</svg>
